<?xml version="1.0" encoding="UTF-8"?> <svg xmlns="http://www.w3.org/2000/svg" width="64" height="64" viewBox="0 0 64 64" fill="none"> <path fill-rule="evenodd" clip-rule="evenodd" d="M52.3099 20.4275C52.6261 19.4339 52.3099 18.7112 50.9098 18.7112H46.2577C45.0834 18.7112 44.5414 19.3435 44.2253 20.0211C44.2253 20.0211 41.8314 25.8023 38.4891 29.5509C37.4051 30.6349 36.9083 30.9963 36.3213 30.9963C36.005 30.9963 35.5986 30.635 35.5986 29.6414V20.3823C35.5986 19.208 35.2373 18.666 34.2435 18.666H26.9267C26.2041 18.666 25.7525 19.208 25.7525 19.75C25.7525 20.8792 27.4235 21.1501 27.6042 24.3117V31.1769C27.6042 32.6675 27.3333 32.9384 26.7461 32.9384C25.1653 32.9384 21.3262 27.112 19.0227 20.4727C18.571 19.1628 18.1194 18.666 16.9451 18.666H12.2478C10.8928 18.666 10.667 19.2984 10.667 19.9759C10.667 21.1953 12.2478 27.3379 18.029 35.4677C21.8682 41.0231 27.3333 44.004 32.2563 44.004C35.2373 44.004 35.5986 43.3265 35.5986 42.1975V37.9971C35.5986 36.642 35.8695 36.4163 36.8181 36.4163C37.4955 36.4163 38.715 36.7775 41.4701 39.4423C44.6317 42.6039 45.1737 44.0492 46.9351 44.0492H51.5873C52.9422 44.0492 53.5746 43.3717 53.2133 42.0619C52.8067 40.7521 51.2711 38.8552 49.2838 36.5968C48.1998 35.3323 46.5738 33.9322 46.077 33.2546C45.3995 32.3514 45.5802 31.99 46.077 31.1769C46.0319 31.1769 51.7227 23.1375 52.3099 20.4275Z" fill="#46495C"></path> <rect x="0.5" y="0.5" width="63" height="63" rx="31.5" stroke="#46495C"></rect> </svg> 