<?xml version="1.0" encoding="UTF-8"?> <svg xmlns="http://www.w3.org/2000/svg" width="64" height="64" viewBox="0 0 64 64" fill="none"> <path fill-rule="evenodd" clip-rule="evenodd" d="M45.3357 21C46.8044 21.403 47.9611 22.5905 48.3536 24.0985C49.0669 26.8317 49.0669 32.5342 49.0669 32.5342C49.0669 32.5342 49.0669 38.2366 48.3536 40.97C47.9611 42.478 46.8044 43.6654 45.3357 44.0686C42.6741 44.8009 32.0003 44.8009 32.0003 44.8009C32.0003 44.8009 21.3264 44.8009 18.6647 44.0686C17.1959 43.6654 16.0392 42.478 15.6467 40.97C14.9336 38.2366 14.9336 32.5342 14.9336 32.5342C14.9336 32.5342 14.9336 26.8317 15.6467 24.0985C16.0392 22.5905 17.1959 21.403 18.6647 21C21.3264 20.2676 32.0003 20.2676 32.0003 20.2676C32.0003 20.2676 42.6741 20.2676 45.3357 21ZM28.7998 27.7344V38.401L37.3331 33.0678L28.7998 27.7344Z" fill="#46495C"></path> <rect x="0.5" y="0.5" width="63" height="63" rx="31.5" stroke="#46495C"></rect> </svg> 