<?xml version="1.0" encoding="UTF-8"?> <svg xmlns="http://www.w3.org/2000/svg" width="507" height="64" viewBox="0 0 507 64" fill="none"> <g clip-path="url(#clip0_2_9344)"> <path d="M0 31.9901C0 5.64626 5.60098 0 31.7336 0C57.8662 0 63.4674 5.64626 63.4674 31.9901C63.4674 58.334 57.8662 63.9806 31.7336 63.9806C5.60098 63.9806 0 58.334 0 31.9901Z" fill="#FF6A39"></path> <path d="M47.1093 26.1065C46.5527 21.9883 44.7836 19.1505 42.1199 18.1123C40.4899 17.4825 38.6412 17.5517 36.6269 18.3199C34.7186 19.0467 32.6579 20.424 30.4912 22.4036C30.2659 22.6043 30.1003 22.8534 29.9942 23.1234C29.7292 23.7947 32.3333 26.6741 33.0489 26.3972C33.2543 26.3142 33.4464 26.1964 33.6187 26.0373C36.8389 23.0887 39.0454 21.7875 40.8079 22.4728C42.5771 23.158 43.1801 25.1306 43.3855 26.6533C44.4721 34.7443 39.2773 42.1433 31.7502 44.2197C24.2031 42.1779 18.339 34.0937 19.4257 26.0027C19.8167 23.0957 21.8707 19.9118 24.0176 18.2715C26.1577 16.6449 28.8347 16.029 31.558 16.5273C31.6309 16.5412 32.0748 16.6519 32.2471 16.6519C32.9296 16.6519 33.4796 16.0774 33.4796 15.3645C33.4796 15.1222 33.4133 14.8939 33.3006 14.707C33.2808 14.6586 33.2542 14.617 33.2211 14.5755C33.2145 14.5686 33.2145 14.5686 33.2079 14.5686C33.0223 14.2294 32.32 14.0494 32.2073 14.0287C28.4703 13.3435 24.7796 14.2087 21.8111 16.465C18.8294 18.7352 16.8946 22.1682 16.3579 26.1411C15.6953 31.083 16.8747 36.1632 19.6841 40.4406C22.4737 44.6835 26.5487 47.6527 31.1604 48.7947L31.6574 48.9262L32.161 48.8432C36.8257 47.715 40.9471 44.7319 43.7632 40.4475C46.5925 36.1563 47.7719 31.0622 47.1093 26.1065Z" fill="white"></path> <path d="M87.034 45.916C86.7782 45.916 86.6326 45.7686 86.6326 45.5101V44.4016C86.6326 44.2179 86.6687 44.0321 86.8143 43.8847L96.9622 29.557H87.5805C87.3253 29.557 87.1797 29.3732 87.1797 29.1148V27.2693C87.1797 27.0109 87.3253 26.8271 87.5805 26.8271H100.687C100.978 26.8271 101.124 27.0109 101.124 27.2693V28.2668C101.124 28.4505 101.05 28.6363 100.943 28.7837L90.7206 43.2204H100.907C101.162 43.2204 101.307 43.3678 101.307 43.6263V45.5101C101.307 45.7686 101.162 45.916 100.907 45.916H87.034Z" fill="#101820"></path> <path d="M112.753 26.4199C117.244 26.4199 120.019 28.8207 120.019 33.5838V44.6627C120.019 44.8849 119.908 45.0686 119.689 45.1433C117.973 45.7713 115.382 46.3245 112.643 46.3245C108.555 46.3245 104.795 44.6627 104.795 40.2691C104.795 36.354 107.97 34.3975 112.643 34.3975C114.14 34.3975 115.783 34.6196 117.024 34.8397V33.6585C117.024 30.6681 115.818 29.1538 112.643 29.1538C110.599 29.1538 108.737 29.7454 107.459 30.5208C107.24 30.6681 107.058 30.6318 106.912 30.4097L105.855 28.859C105.745 28.6369 105.709 28.4895 105.855 28.3421C107.569 27.1569 109.942 26.4199 112.753 26.4199ZM112.645 43.6269C114.288 43.6269 115.93 43.2938 117.027 42.9626V37.4242C115.859 37.202 114.142 36.9819 112.645 36.9819C109.324 36.9819 107.789 38.2378 107.789 40.2691C107.789 42.4821 109.833 43.6269 112.645 43.6269Z" fill="#101820"></path> <path d="M132.901 26.4191C137.537 26.4191 140.823 29.3004 140.823 34.2472V38.3461C140.823 43.9229 137.428 46.3237 132.681 46.3237C130.344 46.3237 127.717 45.8431 125.635 45.0314C125.38 44.9204 125.306 44.773 125.306 44.5509V19.9195C125.306 19.6611 125.451 19.5137 125.707 19.5137H127.861C128.152 19.5137 128.298 19.6611 128.298 19.9195V27.5639C129.577 26.8976 131.184 26.4191 132.901 26.4191ZM137.793 38.3461V34.2472C137.793 30.7017 135.931 29.1146 132.645 29.1146C130.967 29.1146 129.47 29.6315 128.302 30.4432V42.9255C129.434 43.3697 131.041 43.6281 132.609 43.6281C135.857 43.6261 137.793 42.1865 137.793 38.3461Z" fill="#101820"></path> <path d="M174.161 43.5174C174.562 43.5174 175.257 43.481 175.914 43.4426C176.205 43.4426 176.351 43.59 176.351 43.8485V45.805C176.351 46.0271 176.241 46.2109 175.986 46.2472C175.329 46.2835 174.488 46.3219 174.013 46.3219C170.363 46.3219 167.662 44.327 167.662 39.786V22.5769C167.662 22.2822 167.808 22.1348 168.099 22.1348H169.998C170.217 22.1348 170.363 22.2822 170.398 22.5406L170.654 27.0089H175.401C175.656 27.0089 175.802 27.1563 175.802 27.4148V29.2603C175.802 29.5551 175.656 29.7045 175.401 29.7045H170.654V39.6386C170.656 42.0757 171.898 43.5174 174.161 43.5174Z" fill="#101820"></path> <path d="M186.998 26.4199C191.489 26.4199 194.264 28.8207 194.264 33.5838V44.6627C194.264 44.8849 194.154 45.0686 193.935 45.1433C192.218 45.7713 189.627 46.3245 186.888 46.3245C182.8 46.3245 179.04 44.6627 179.04 40.2691C179.04 36.354 182.216 34.3975 186.888 34.3975C188.385 34.3975 190.028 34.6196 191.269 34.8397V33.6585C191.269 30.6681 190.064 29.1538 186.888 29.1538C184.844 29.1538 182.982 29.7454 181.705 30.5208C181.485 30.6681 181.303 30.6318 181.157 30.4097L180.099 28.859C179.99 28.6369 179.954 28.4895 180.099 28.3421C181.814 27.1569 184.187 26.4199 186.998 26.4199ZM186.888 43.6269C188.531 43.6269 190.174 43.2938 191.269 42.9626V37.4242C190.102 37.202 188.385 36.9819 186.888 36.9819C183.567 36.9819 182.032 38.2378 182.032 40.2691C182.034 42.4821 184.078 43.6269 186.888 43.6269Z" fill="#101820"></path> <path d="M198.513 31.4869C198.445 31.4869 198.405 31.4466 198.405 31.3779V30.9721C198.405 30.9216 198.415 30.8731 198.463 30.8327L200.372 28.8035C201.292 27.8242 201.996 27.0328 201.996 26.221C201.996 25.6577 201.645 25.0722 200.753 25.0722C199.96 25.0722 199.441 25.4881 199.03 25.9424C198.982 26.001 198.922 25.9909 198.874 25.9424L198.561 25.5063C198.521 25.4558 198.521 25.3972 198.561 25.3488C199.03 24.8137 199.707 24.2988 200.743 24.2988C201.966 24.2988 202.816 25.0217 202.816 26.2089C202.816 27.2185 202.152 28.0403 201.094 29.2073C200.751 29.593 200.251 30.1381 199.655 30.7217H202.854C202.922 30.7217 202.962 30.7621 202.962 30.8408V31.3759C202.962 31.4446 202.922 31.4849 202.854 31.4849H198.513V31.4869ZM204.571 31.5374C204.247 31.5374 204.032 31.3093 204.032 30.9922C204.032 30.6651 204.247 30.437 204.571 30.437C204.884 30.437 205.11 30.6651 205.11 30.9922C205.108 31.3093 204.884 31.5374 204.571 31.5374ZM208.533 31.596C207.33 31.596 206.186 30.8832 206.186 29.2598V26.6168C206.186 25.0035 207.331 24.3008 208.533 24.3008C209.727 24.3008 210.862 25.0035 210.862 26.6168V29.2598C210.862 30.8832 209.727 31.596 208.533 31.596ZM208.533 30.8045C209.316 30.8045 210.05 30.3886 210.05 29.2901V26.6471C210.05 25.5083 209.326 25.0924 208.533 25.0924C207.731 25.0924 206.996 25.5083 206.996 26.6471V29.2901C206.998 30.3886 207.741 30.8045 208.533 30.8045Z" fill="#101820"></path> <path d="M154.257 46.7058C148.606 46.7058 144.181 42.1203 144.181 36.2689C144.181 30.4154 148.606 25.832 154.257 25.832C159.908 25.832 164.333 30.4174 164.333 36.2689C164.331 42.1203 159.906 46.7058 154.257 46.7058ZM154.257 28.7779C150.241 28.7779 147.095 32.0671 147.095 36.2689C147.095 40.4686 150.241 43.7599 154.257 43.7599C158.273 43.7599 161.419 40.4707 161.419 36.2689C161.419 32.0671 158.273 28.7779 154.257 28.7779Z" fill="#101820"></path> </g> <rect x="235" y="12" width="1" height="40" fill="#E1E1E1"></rect> <path d="M264.041 28.27C263.309 28.27 262.694 28.138 262.196 27.874C261.704 27.61 261.335 27.259 261.089 26.821C260.843 26.383 260.72 25.906 260.72 25.39C260.72 24.862 260.825 24.412 261.035 24.04C261.251 23.662 261.542 23.353 261.908 23.113C262.28 22.873 262.709 22.69 263.195 22.564C263.687 22.444 264.23 22.339 264.824 22.249C265.424 22.153 266.009 22.072 266.579 22.006C267.155 21.934 267.659 21.865 268.091 21.799L267.623 22.087C267.641 21.127 267.455 20.416 267.065 19.954C266.675 19.492 265.997 19.261 265.031 19.261C264.365 19.261 263.801 19.411 263.339 19.711C262.883 20.011 262.562 20.485 262.376 21.133L261.089 20.755C261.311 19.885 261.758 19.21 262.43 18.73C263.102 18.25 263.975 18.01 265.049 18.01C265.937 18.01 266.69 18.178 267.308 18.514C267.932 18.844 268.373 19.324 268.631 19.954C268.751 20.236 268.829 20.551 268.865 20.899C268.901 21.247 268.919 21.601 268.919 21.961V28H267.74V25.561L268.082 25.705C267.752 26.539 267.239 27.175 266.543 27.613C265.847 28.051 265.013 28.27 264.041 28.27ZM264.194 27.127C264.812 27.127 265.352 27.016 265.814 26.794C266.276 26.572 266.648 26.269 266.93 25.885C267.212 25.495 267.395 25.057 267.479 24.571C267.551 24.259 267.59 23.917 267.596 23.545C267.602 23.167 267.605 22.885 267.605 22.699L268.109 22.96C267.659 23.02 267.17 23.08 266.642 23.14C266.12 23.2 265.604 23.269 265.094 23.347C264.59 23.425 264.134 23.518 263.726 23.626C263.45 23.704 263.183 23.815 262.925 23.959C262.667 24.097 262.454 24.283 262.286 24.517C262.124 24.751 262.043 25.042 262.043 25.39C262.043 25.672 262.112 25.945 262.25 26.209C262.394 26.473 262.622 26.692 262.934 26.866C263.252 27.04 263.672 27.127 264.194 27.127ZM271.253 28V18.28H272.576V22.501H278.057V18.28H279.38V28H278.057V23.77H272.576V28H271.253ZM284.678 28.27C283.946 28.27 283.331 28.138 282.833 27.874C282.341 27.61 281.972 27.259 281.726 26.821C281.48 26.383 281.357 25.906 281.357 25.39C281.357 24.862 281.462 24.412 281.672 24.04C281.888 23.662 282.179 23.353 282.545 23.113C282.917 22.873 283.346 22.69 283.832 22.564C284.324 22.444 284.867 22.339 285.461 22.249C286.061 22.153 286.646 22.072 287.216 22.006C287.792 21.934 288.296 21.865 288.728 21.799L288.26 22.087C288.278 21.127 288.092 20.416 287.702 19.954C287.312 19.492 286.634 19.261 285.668 19.261C285.002 19.261 284.438 19.411 283.976 19.711C283.52 20.011 283.199 20.485 283.013 21.133L281.726 20.755C281.948 19.885 282.395 19.21 283.067 18.73C283.739 18.25 284.612 18.01 285.686 18.01C286.574 18.01 287.327 18.178 287.945 18.514C288.569 18.844 289.01 19.324 289.268 19.954C289.388 20.236 289.466 20.551 289.502 20.899C289.538 21.247 289.556 21.601 289.556 21.961V28H288.377V25.561L288.719 25.705C288.389 26.539 287.876 27.175 287.18 27.613C286.484 28.051 285.65 28.27 284.678 28.27ZM284.831 27.127C285.449 27.127 285.989 27.016 286.451 26.794C286.913 26.572 287.285 26.269 287.567 25.885C287.849 25.495 288.032 25.057 288.116 24.571C288.188 24.259 288.227 23.917 288.233 23.545C288.239 23.167 288.242 22.885 288.242 22.699L288.746 22.96C288.296 23.02 287.807 23.08 287.279 23.14C286.757 23.2 286.241 23.269 285.731 23.347C285.227 23.425 284.771 23.518 284.363 23.626C284.087 23.704 283.82 23.815 283.562 23.959C283.304 24.097 283.091 24.283 282.923 24.517C282.761 24.751 282.68 25.042 282.68 25.39C282.68 25.672 282.749 25.945 282.887 26.209C283.031 26.473 283.259 26.692 283.571 26.866C283.889 27.04 284.309 27.127 284.831 27.127ZM290.999 28V26.839C291.359 26.905 291.632 26.89 291.818 26.794C292.01 26.692 292.151 26.524 292.241 26.29C292.331 26.05 292.406 25.753 292.466 25.399C292.562 24.811 292.649 24.163 292.727 23.455C292.805 22.747 292.874 21.967 292.934 21.115C293 20.257 293.066 19.312 293.132 18.28H299.738V28H298.424V19.549H294.356C294.314 20.185 294.266 20.818 294.212 21.448C294.158 22.078 294.101 22.684 294.041 23.266C293.987 23.842 293.927 24.373 293.861 24.859C293.795 25.345 293.726 25.765 293.654 26.119C293.546 26.653 293.402 27.079 293.222 27.397C293.048 27.715 292.787 27.925 292.439 28.027C292.091 28.129 291.611 28.12 290.999 28ZM309.974 18.28V28H308.687V20.431L303.359 28H302.243V18.28H303.53V25.786L308.867 18.28H309.974ZM315.137 28V19.504H311.69V18.28H319.907V19.504H316.46V28H315.137ZM329.345 18.28V28H328.058V20.431L322.73 28H321.614V18.28H322.901V25.786L328.238 18.28H329.345ZM337.82 28V24.382C337.496 24.544 337.097 24.685 336.623 24.805C336.149 24.925 335.639 24.985 335.093 24.985C334.109 24.985 333.311 24.766 332.699 24.328C332.087 23.89 331.688 23.257 331.502 22.429C331.442 22.183 331.4 21.922 331.376 21.646C331.358 21.37 331.346 21.121 331.34 20.899C331.334 20.677 331.331 20.518 331.331 20.422V18.28H332.663V20.422C332.663 20.62 332.669 20.845 332.681 21.097C332.693 21.349 332.72 21.595 332.762 21.835C332.882 22.489 333.152 22.984 333.572 23.32C333.998 23.656 334.595 23.824 335.363 23.824C335.843 23.824 336.296 23.764 336.722 23.644C337.154 23.518 337.52 23.35 337.82 23.14V18.28H339.143V28H337.82ZM345.775 28.27C344.827 28.27 344.005 28.06 343.309 27.64C342.619 27.22 342.082 26.629 341.698 25.867C341.314 25.105 341.122 24.211 341.122 23.185C341.122 22.123 341.311 21.205 341.689 20.431C342.067 19.657 342.598 19.06 343.282 18.64C343.972 18.22 344.785 18.01 345.721 18.01C346.681 18.01 347.5 18.232 348.178 18.676C348.856 19.114 349.369 19.744 349.717 20.566C350.065 21.388 350.224 22.369 350.194 23.509H348.844V23.041C348.82 21.781 348.547 20.83 348.025 20.188C347.509 19.546 346.753 19.225 345.757 19.225C344.713 19.225 343.912 19.564 343.354 20.242C342.802 20.92 342.526 21.886 342.526 23.14C342.526 24.364 342.802 25.315 343.354 25.993C343.912 26.665 344.701 27.001 345.721 27.001C346.417 27.001 347.023 26.842 347.539 26.524C348.061 26.2 348.472 25.735 348.772 25.129L350.005 25.606C349.621 26.452 349.054 27.109 348.304 27.577C347.56 28.039 346.717 28.27 345.775 28.27ZM342.058 23.509V22.402H349.483V23.509H342.058ZM356.224 28.27C355.246 28.27 354.418 28.051 353.74 27.613C353.062 27.175 352.546 26.572 352.192 25.804C351.844 25.03 351.664 24.142 351.652 23.14C351.664 22.12 351.85 21.226 352.21 20.458C352.57 19.684 353.089 19.084 353.767 18.658C354.445 18.226 355.267 18.01 356.233 18.01C357.217 18.01 358.072 18.25 358.798 18.73C359.53 19.21 360.031 19.867 360.301 20.701L359.005 21.115C358.777 20.533 358.414 20.083 357.916 19.765C357.424 19.441 356.86 19.279 356.224 19.279C355.51 19.279 354.919 19.444 354.451 19.774C353.983 20.098 353.635 20.551 353.407 21.133C353.179 21.715 353.062 22.384 353.056 23.14C353.068 24.304 353.338 25.24 353.866 25.948C354.394 26.65 355.18 27.001 356.224 27.001C356.884 27.001 357.445 26.851 357.907 26.551C358.375 26.245 358.729 25.801 358.969 25.219L360.301 25.615C359.941 26.479 359.413 27.139 358.717 27.595C358.021 28.045 357.19 28.27 356.224 28.27ZM362.149 28L362.158 18.28H363.49V22.96L367.828 18.28H369.592L365.038 23.14L370.186 28H368.26L363.49 23.32V28H362.149ZM373.869 28.27C373.137 28.27 372.522 28.138 372.024 27.874C371.532 27.61 371.163 27.259 370.917 26.821C370.671 26.383 370.548 25.906 370.548 25.39C370.548 24.862 370.653 24.412 370.863 24.04C371.079 23.662 371.37 23.353 371.736 23.113C372.108 22.873 372.537 22.69 373.023 22.564C373.515 22.444 374.058 22.339 374.652 22.249C375.252 22.153 375.837 22.072 376.407 22.006C376.983 21.934 377.487 21.865 377.919 21.799L377.451 22.087C377.469 21.127 377.283 20.416 376.893 19.954C376.503 19.492 375.825 19.261 374.859 19.261C374.193 19.261 373.629 19.411 373.167 19.711C372.711 20.011 372.39 20.485 372.204 21.133L370.917 20.755C371.139 19.885 371.586 19.21 372.258 18.73C372.93 18.25 373.803 18.01 374.877 18.01C375.765 18.01 376.518 18.178 377.136 18.514C377.76 18.844 378.201 19.324 378.459 19.954C378.579 20.236 378.657 20.551 378.693 20.899C378.729 21.247 378.747 21.601 378.747 21.961V28H377.568V25.561L377.91 25.705C377.58 26.539 377.067 27.175 376.371 27.613C375.675 28.051 374.841 28.27 373.869 28.27ZM374.022 27.127C374.64 27.127 375.18 27.016 375.642 26.794C376.104 26.572 376.476 26.269 376.758 25.885C377.04 25.495 377.223 25.057 377.307 24.571C377.379 24.259 377.418 23.917 377.424 23.545C377.43 23.167 377.433 22.885 377.433 22.699L377.937 22.96C377.487 23.02 376.998 23.08 376.47 23.14C375.948 23.2 375.432 23.269 374.922 23.347C374.418 23.425 373.962 23.518 373.554 23.626C373.278 23.704 373.011 23.815 372.753 23.959C372.495 24.097 372.282 24.283 372.114 24.517C371.952 24.751 371.871 25.042 371.871 25.39C371.871 25.672 371.94 25.945 372.078 26.209C372.222 26.473 372.45 26.692 372.762 26.866C373.08 27.04 373.5 27.127 374.022 27.127ZM387.183 28V24.337H384.915C384.651 24.337 384.378 24.328 384.096 24.31C383.82 24.286 383.562 24.253 383.322 24.211C382.638 24.079 382.056 23.779 381.576 23.311C381.102 22.837 380.865 22.183 380.865 21.349C380.865 20.533 381.087 19.879 381.531 19.387C381.975 18.889 382.512 18.565 383.142 18.415C383.43 18.349 383.721 18.31 384.015 18.298C384.315 18.286 384.573 18.28 384.789 18.28H388.506L388.515 28H387.183ZM380.55 28L383.259 23.923H384.726L381.999 28H380.55ZM384.843 23.203H387.183V19.414H384.843C384.699 19.414 384.498 19.42 384.24 19.432C383.982 19.444 383.739 19.483 383.511 19.549C383.313 19.609 383.115 19.714 382.917 19.864C382.725 20.008 382.563 20.203 382.431 20.449C382.299 20.689 382.233 20.983 382.233 21.331C382.233 21.817 382.365 22.207 382.629 22.501C382.899 22.789 383.235 22.987 383.637 23.095C383.853 23.143 384.069 23.173 384.285 23.185C384.501 23.197 384.687 23.203 384.843 23.203ZM398.675 28.27C397.697 28.27 396.869 28.051 396.191 27.613C395.513 27.175 394.997 26.572 394.643 25.804C394.295 25.03 394.115 24.142 394.103 23.14C394.115 22.12 394.301 21.226 394.661 20.458C395.021 19.684 395.54 19.084 396.218 18.658C396.896 18.226 397.718 18.01 398.684 18.01C399.668 18.01 400.523 18.25 401.249 18.73C401.981 19.21 402.482 19.867 402.752 20.701L401.456 21.115C401.228 20.533 400.865 20.083 400.367 19.765C399.875 19.441 399.311 19.279 398.675 19.279C397.961 19.279 397.37 19.444 396.902 19.774C396.434 20.098 396.086 20.551 395.858 21.133C395.63 21.715 395.513 22.384 395.507 23.14C395.519 24.304 395.789 25.24 396.317 25.948C396.845 26.65 397.631 27.001 398.675 27.001C399.335 27.001 399.896 26.851 400.358 26.551C400.826 26.245 401.18 25.801 401.42 25.219L402.752 25.615C402.392 26.479 401.864 27.139 401.168 27.595C400.472 28.045 399.641 28.27 398.675 28.27ZM412.332 18.28V28H411.045V20.431L405.717 28H404.601V18.28H405.888V25.786L411.225 18.28H412.332ZM418.89 28.27C417.912 28.27 417.084 28.051 416.406 27.613C415.728 27.175 415.212 26.572 414.858 25.804C414.51 25.03 414.33 24.142 414.318 23.14C414.33 22.12 414.516 21.226 414.876 20.458C415.236 19.684 415.755 19.084 416.433 18.658C417.111 18.226 417.933 18.01 418.899 18.01C419.883 18.01 420.738 18.25 421.464 18.73C422.196 19.21 422.697 19.867 422.967 20.701L421.671 21.115C421.443 20.533 421.08 20.083 420.582 19.765C420.09 19.441 419.526 19.279 418.89 19.279C418.176 19.279 417.585 19.444 417.117 19.774C416.649 20.098 416.301 20.551 416.073 21.133C415.845 21.715 415.728 22.384 415.722 23.14C415.734 24.304 416.004 25.24 416.532 25.948C417.06 26.65 417.846 27.001 418.89 27.001C419.55 27.001 420.111 26.851 420.573 26.551C421.041 26.245 421.395 25.801 421.635 25.219L422.967 25.615C422.607 26.479 422.079 27.139 421.383 27.595C420.687 28.045 419.856 28.27 418.89 28.27ZM427.233 28V19.504H423.786V18.28H432.003V19.504H428.556V28H427.233ZM437.832 28.27C436.884 28.27 436.062 28.06 435.366 27.64C434.676 27.22 434.139 26.629 433.755 25.867C433.371 25.105 433.179 24.211 433.179 23.185C433.179 22.123 433.368 21.205 433.746 20.431C434.124 19.657 434.655 19.06 435.339 18.64C436.029 18.22 436.842 18.01 437.778 18.01C438.738 18.01 439.557 18.232 440.235 18.676C440.913 19.114 441.426 19.744 441.774 20.566C442.122 21.388 442.281 22.369 442.251 23.509H440.901V23.041C440.877 21.781 440.604 20.83 440.082 20.188C439.566 19.546 438.81 19.225 437.814 19.225C436.77 19.225 435.969 19.564 435.411 20.242C434.859 20.92 434.583 21.886 434.583 23.14C434.583 24.364 434.859 25.315 435.411 25.993C435.969 26.665 436.758 27.001 437.778 27.001C438.474 27.001 439.08 26.842 439.596 26.524C440.118 26.2 440.529 25.735 440.829 25.129L442.062 25.606C441.678 26.452 441.111 27.109 440.361 27.577C439.617 28.039 438.774 28.27 437.832 28.27ZM434.115 23.509V22.402H441.54V23.509H434.115ZM443.976 28V18.28H445.155L448.944 26.236L452.742 18.28H453.912V28H452.634V21.106L449.367 28H448.53L445.263 21.106V28H443.976ZM459.211 28.27C458.479 28.27 457.864 28.138 457.366 27.874C456.874 27.61 456.505 27.259 456.259 26.821C456.013 26.383 455.89 25.906 455.89 25.39C455.89 24.862 455.995 24.412 456.205 24.04C456.421 23.662 456.712 23.353 457.078 23.113C457.45 22.873 457.879 22.69 458.365 22.564C458.857 22.444 459.4 22.339 459.994 22.249C460.594 22.153 461.179 22.072 461.749 22.006C462.325 21.934 462.829 21.865 463.261 21.799L462.793 22.087C462.811 21.127 462.625 20.416 462.235 19.954C461.845 19.492 461.167 19.261 460.201 19.261C459.535 19.261 458.971 19.411 458.509 19.711C458.053 20.011 457.732 20.485 457.546 21.133L456.259 20.755C456.481 19.885 456.928 19.21 457.6 18.73C458.272 18.25 459.145 18.01 460.219 18.01C461.107 18.01 461.86 18.178 462.478 18.514C463.102 18.844 463.543 19.324 463.801 19.954C463.921 20.236 463.999 20.551 464.035 20.899C464.071 21.247 464.089 21.601 464.089 21.961V28H462.91V25.561L463.252 25.705C462.922 26.539 462.409 27.175 461.713 27.613C461.017 28.051 460.183 28.27 459.211 28.27ZM459.364 27.127C459.982 27.127 460.522 27.016 460.984 26.794C461.446 26.572 461.818 26.269 462.1 25.885C462.382 25.495 462.565 25.057 462.649 24.571C462.721 24.259 462.76 23.917 462.766 23.545C462.772 23.167 462.775 22.885 462.775 22.699L463.279 22.96C462.829 23.02 462.34 23.08 461.812 23.14C461.29 23.2 460.774 23.269 460.264 23.347C459.76 23.425 459.304 23.518 458.896 23.626C458.62 23.704 458.353 23.815 458.095 23.959C457.837 24.097 457.624 24.283 457.456 24.517C457.294 24.751 457.213 25.042 457.213 25.39C457.213 25.672 457.282 25.945 457.42 26.209C457.564 26.473 457.792 26.692 458.104 26.866C458.422 27.04 458.842 27.127 459.364 27.127ZM261.251 50L261.26 40.28H262.592V44.96L266.93 40.28H268.694L264.14 45.14L269.288 50H267.362L262.592 45.32V50H261.251ZM274.073 50.27C273.107 50.27 272.282 50.051 271.598 49.613C270.914 49.175 270.389 48.569 270.023 47.795C269.657 47.021 269.474 46.133 269.474 45.131C269.474 44.111 269.66 43.217 270.032 42.449C270.404 41.681 270.932 41.084 271.616 40.658C272.306 40.226 273.125 40.01 274.073 40.01C275.045 40.01 275.873 40.229 276.557 40.667C277.247 41.099 277.772 41.702 278.132 42.476C278.498 43.244 278.681 44.129 278.681 45.131C278.681 46.151 278.498 47.048 278.132 47.822C277.766 48.59 277.238 49.19 276.548 49.622C275.858 50.054 275.033 50.27 274.073 50.27ZM274.073 49.001C275.153 49.001 275.957 48.644 276.485 47.93C277.013 47.21 277.277 46.277 277.277 45.131C277.277 43.955 277.01 43.019 276.476 42.323C275.948 41.627 275.147 41.279 274.073 41.279C273.347 41.279 272.747 41.444 272.273 41.774C271.805 42.098 271.454 42.551 271.22 43.133C270.992 43.709 270.878 44.375 270.878 45.131C270.878 46.301 271.148 47.24 271.688 47.948C272.228 48.65 273.023 49.001 274.073 49.001ZM280.657 50V40.28H281.836L285.625 48.236L289.423 40.28H290.593V50H289.315V43.106L286.048 50H285.211L281.944 43.106V50H280.657ZM293.103 50V40.28H294.282L298.071 48.236L301.869 40.28H303.039V50H301.761V43.106L298.494 50H297.657L294.39 43.106V50H293.103ZM306.943 54.32L308.824 49.217L308.851 50.729L304.594 40.28H305.998L309.49 49.019H308.914L312.136 40.28H313.486L308.266 54.32H306.943ZM315.04 50V40.28H316.363V44.501H321.844V40.28H323.167V50H321.844V45.77H316.363V50H315.04ZM333.406 40.28V50H332.119V42.431L326.791 50H325.675V40.28H326.962V47.786L332.299 40.28H333.406ZM335.923 50L335.932 40.28H337.264V44.96L341.602 40.28H343.366L338.812 45.14L343.96 50H342.034L337.264 45.32V50H335.923ZM347.643 50.27C346.911 50.27 346.296 50.138 345.798 49.874C345.306 49.61 344.937 49.259 344.691 48.821C344.445 48.383 344.322 47.906 344.322 47.39C344.322 46.862 344.427 46.412 344.637 46.04C344.853 45.662 345.144 45.353 345.51 45.113C345.882 44.873 346.311 44.69 346.797 44.564C347.289 44.444 347.832 44.339 348.426 44.249C349.026 44.153 349.611 44.072 350.181 44.006C350.757 43.934 351.261 43.865 351.693 43.799L351.225 44.087C351.243 43.127 351.057 42.416 350.667 41.954C350.277 41.492 349.599 41.261 348.633 41.261C347.967 41.261 347.403 41.411 346.941 41.711C346.485 42.011 346.164 42.485 345.978 43.133L344.691 42.755C344.913 41.885 345.36 41.21 346.032 40.73C346.704 40.25 347.577 40.01 348.651 40.01C349.539 40.01 350.292 40.178 350.91 40.514C351.534 40.844 351.975 41.324 352.233 41.954C352.353 42.236 352.431 42.551 352.467 42.899C352.503 43.247 352.521 43.601 352.521 43.961V50H351.342V47.561L351.684 47.705C351.354 48.539 350.841 49.175 350.145 49.613C349.449 50.051 348.615 50.27 347.643 50.27ZM347.796 49.127C348.414 49.127 348.954 49.016 349.416 48.794C349.878 48.572 350.25 48.269 350.532 47.885C350.814 47.495 350.997 47.057 351.081 46.571C351.153 46.259 351.192 45.917 351.198 45.545C351.204 45.167 351.207 44.885 351.207 44.699L351.711 44.96C351.261 45.02 350.772 45.08 350.244 45.14C349.722 45.2 349.206 45.269 348.696 45.347C348.192 45.425 347.736 45.518 347.328 45.626C347.052 45.704 346.785 45.815 346.527 45.959C346.269 46.097 346.056 46.283 345.888 46.517C345.726 46.751 345.645 47.042 345.645 47.39C345.645 47.672 345.714 47.945 345.852 48.209C345.996 48.473 346.224 48.692 346.536 48.866C346.854 49.04 347.274 49.127 347.796 49.127ZM363.216 51.683V50H354.855V40.28H356.178V48.731H361.263V40.28H362.586V48.776H364.539V51.683H363.216ZM373.695 40.28V50H372.408V42.431L367.08 50H365.964V40.28H367.251V47.786L372.588 40.28H373.695ZM383.943 40.28V50H382.656V42.431L377.328 50H376.212V40.28H377.499V47.786L382.836 40.28H383.943ZM394.104 50.27C393.127 50.27 392.299 50.051 391.621 49.613C390.943 49.175 390.427 48.572 390.073 47.804C389.725 47.03 389.545 46.142 389.533 45.14C389.545 44.12 389.731 43.226 390.091 42.458C390.451 41.684 390.97 41.084 391.648 40.658C392.326 40.226 393.148 40.01 394.114 40.01C395.098 40.01 395.953 40.25 396.679 40.73C397.411 41.21 397.912 41.867 398.182 42.701L396.886 43.115C396.658 42.533 396.295 42.083 395.797 41.765C395.305 41.441 394.741 41.279 394.104 41.279C393.391 41.279 392.8 41.444 392.332 41.774C391.864 42.098 391.516 42.551 391.288 43.133C391.06 43.715 390.943 44.384 390.937 45.14C390.949 46.304 391.219 47.24 391.747 47.948C392.275 48.65 393.061 49.001 394.104 49.001C394.765 49.001 395.326 48.851 395.788 48.551C396.256 48.245 396.61 47.801 396.85 47.219L398.182 47.615C397.822 48.479 397.294 49.139 396.598 49.595C395.902 50.045 395.071 50.27 394.104 50.27ZM403.634 50V40.28H411.365V50H410.042V41.549H404.957V50H403.634ZM416.672 50.27C415.94 50.27 415.325 50.138 414.827 49.874C414.335 49.61 413.966 49.259 413.72 48.821C413.474 48.383 413.351 47.906 413.351 47.39C413.351 46.862 413.456 46.412 413.666 46.04C413.882 45.662 414.173 45.353 414.539 45.113C414.911 44.873 415.34 44.69 415.826 44.564C416.318 44.444 416.861 44.339 417.455 44.249C418.055 44.153 418.64 44.072 419.21 44.006C419.786 43.934 420.29 43.865 420.722 43.799L420.254 44.087C420.272 43.127 420.086 42.416 419.696 41.954C419.306 41.492 418.628 41.261 417.662 41.261C416.996 41.261 416.432 41.411 415.97 41.711C415.514 42.011 415.193 42.485 415.007 43.133L413.72 42.755C413.942 41.885 414.389 41.21 415.061 40.73C415.733 40.25 416.606 40.01 417.68 40.01C418.568 40.01 419.321 40.178 419.939 40.514C420.563 40.844 421.004 41.324 421.262 41.954C421.382 42.236 421.46 42.551 421.496 42.899C421.532 43.247 421.55 43.601 421.55 43.961V50H420.371V47.561L420.713 47.705C420.383 48.539 419.87 49.175 419.174 49.613C418.478 50.051 417.644 50.27 416.672 50.27ZM416.825 49.127C417.443 49.127 417.983 49.016 418.445 48.794C418.907 48.572 419.279 48.269 419.561 47.885C419.843 47.495 420.026 47.057 420.11 46.571C420.182 46.259 420.221 45.917 420.227 45.545C420.233 45.167 420.236 44.885 420.236 44.699L420.74 44.96C420.29 45.02 419.801 45.08 419.273 45.14C418.751 45.2 418.235 45.269 417.725 45.347C417.221 45.425 416.765 45.518 416.357 45.626C416.081 45.704 415.814 45.815 415.556 45.959C415.298 46.097 415.085 46.283 414.917 46.517C414.755 46.751 414.674 47.042 414.674 47.39C414.674 47.672 414.743 47.945 414.881 48.209C415.025 48.473 415.253 48.692 415.565 48.866C415.883 49.04 416.303 49.127 416.825 49.127ZM432.245 51.683V50H423.884V40.28H425.207V48.731H430.292V40.28H431.615V48.776H433.568V51.683H432.245ZM442.724 40.28V50H441.437V42.431L436.109 50H434.993V40.28H436.28V47.786L441.617 40.28H442.724ZM449.363 50.27C448.415 50.27 447.593 50.06 446.897 49.64C446.207 49.22 445.67 48.629 445.286 47.867C444.902 47.105 444.71 46.211 444.71 45.185C444.71 44.123 444.899 43.205 445.277 42.431C445.655 41.657 446.186 41.06 446.87 40.64C447.56 40.22 448.373 40.01 449.309 40.01C450.269 40.01 451.088 40.232 451.766 40.676C452.444 41.114 452.957 41.744 453.305 42.566C453.653 43.388 453.812 44.369 453.782 45.509H452.432V45.041C452.408 43.781 452.135 42.83 451.613 42.188C451.097 41.546 450.341 41.225 449.345 41.225C448.301 41.225 447.5 41.564 446.942 42.242C446.39 42.92 446.114 43.886 446.114 45.14C446.114 46.364 446.39 47.315 446.942 47.993C447.5 48.665 448.289 49.001 449.309 49.001C450.005 49.001 450.611 48.842 451.127 48.524C451.649 48.2 452.06 47.735 452.36 47.129L453.593 47.606C453.209 48.452 452.642 49.109 451.892 49.577C451.148 50.039 450.305 50.27 449.363 50.27ZM445.646 45.509V44.402H453.071V45.509H445.646ZM455.771 50V40.28H457.094V44.501H462.575V40.28H463.898V50H462.575V45.77H457.094V50H455.771ZM469.051 50V41.504H465.604V40.28H473.821V41.504H470.374V50H469.051ZM477.949 50.27C477.217 50.27 476.602 50.138 476.104 49.874C475.612 49.61 475.243 49.259 474.997 48.821C474.751 48.383 474.628 47.906 474.628 47.39C474.628 46.862 474.733 46.412 474.943 46.04C475.159 45.662 475.45 45.353 475.816 45.113C476.188 44.873 476.617 44.69 477.103 44.564C477.595 44.444 478.138 44.339 478.732 44.249C479.332 44.153 479.917 44.072 480.487 44.006C481.063 43.934 481.567 43.865 481.999 43.799L481.531 44.087C481.549 43.127 481.363 42.416 480.973 41.954C480.583 41.492 479.905 41.261 478.939 41.261C478.273 41.261 477.709 41.411 477.247 41.711C476.791 42.011 476.47 42.485 476.284 43.133L474.997 42.755C475.219 41.885 475.666 41.21 476.338 40.73C477.01 40.25 477.883 40.01 478.957 40.01C479.845 40.01 480.598 40.178 481.216 40.514C481.84 40.844 482.281 41.324 482.539 41.954C482.659 42.236 482.737 42.551 482.773 42.899C482.809 43.247 482.827 43.601 482.827 43.961V50H481.648V47.561L481.99 47.705C481.66 48.539 481.147 49.175 480.451 49.613C479.755 50.051 478.921 50.27 477.949 50.27ZM478.102 49.127C478.72 49.127 479.26 49.016 479.722 48.794C480.184 48.572 480.556 48.269 480.838 47.885C481.12 47.495 481.303 47.057 481.387 46.571C481.459 46.259 481.498 45.917 481.504 45.545C481.51 45.167 481.513 44.885 481.513 44.699L482.017 44.96C481.567 45.02 481.078 45.08 480.55 45.14C480.028 45.2 479.512 45.269 479.002 45.347C478.498 45.425 478.042 45.518 477.634 45.626C477.358 45.704 477.091 45.815 476.833 45.959C476.575 46.097 476.362 46.283 476.194 46.517C476.032 46.751 475.951 47.042 475.951 47.39C475.951 47.672 476.02 47.945 476.158 48.209C476.302 48.473 476.53 48.692 476.842 48.866C477.16 49.04 477.58 49.127 478.102 49.127ZM485.161 50V40.28H486.34L490.129 48.236L493.927 40.28H495.097V50H493.819V43.106L490.552 50H489.715L486.448 43.106V50H485.161ZM505.337 40.28V50H504.05V42.431L498.722 50H497.606V40.28H498.893V47.786L504.23 40.28H505.337Z" fill="#46495C"></path> <defs> <clipPath id="clip0_2_9344"> <rect width="211" height="64" fill="white"></rect> </clipPath> </defs> </svg> 