<?xml version="1.0" encoding="UTF-8"?> <svg xmlns="http://www.w3.org/2000/svg" viewBox="0 0 282.11 70.05"><defs><style>.cls-1{fill:#2b4838;}.cls-2{fill:#335d27;}.cls-3{fill:#5b9c1a;}.cls-4{fill:#3b7745;}.cls-5{fill:#2b3e38;}.cls-6{fill:#393c39;}</style></defs><title>Ресурс 1</title><g id="Слой_2" data-name="Слой 2"><g id="Слой_1-2" data-name="Слой 1"><path class="cls-1" d="M45.15,63A47.63,47.63,0,0,1,35,68l.07,0c9.63,3.34,19.22,2.79,25.27-3.26l3.87-3.86c-3.67,2.92-10.15,4.4-19.07,2.07"></path><path class="cls-2" d="M68,35c3.34-9.63,2.79-19.22-3.26-25.27L60.89,5.82C63.81,9.49,65.29,16,63,24.89A47.63,47.63,0,0,1,68,35Z"></path><path class="cls-1" d="M35,59A55.79,55.79,0,0,1,21.24,48.81,54.25,54.25,0,0,1,8.1,28.22C4.42,17.57,5.88,9.94,9.16,5.83L5.29,9.69C-.75,15.74-1.3,25.33,2,35s9.88,16.9,13,20a61.23,61.23,0,0,0,9.84,8c1.08-.28,2.18-.61,3.33-1A50.92,50.92,0,0,0,35,59"></path><path class="cls-3" d="M7.09,45.15A47.67,47.67,0,0,1,2.06,35l0,.07C-1.3,44.72-.76,54.31,5.29,60.36l3.86,3.87c-2.92-3.67-4.4-10.15-2.07-19.07"></path><path class="cls-3" d="M60.36,5.29c-6-6-15.64-6.59-25.27-3.26s-16.9,9.88-20,13a61.21,61.21,0,0,0-8,9.84c.28,1.07.61,2.18,1,3.33A51,51,0,0,0,11,35,55.79,55.79,0,0,1,21.24,21.24,54.24,54.24,0,0,1,41.83,8.1c10.65-3.68,18.28-2.22,22.4,1.06Z"></path><path class="cls-4" d="M24.89,7.09A47.66,47.66,0,0,1,35,2.06L35,2C25.33-1.3,15.74-.76,9.69,5.29L5.83,9.16C9.5,6.23,16,4.76,24.89,7.09"></path><path class="cls-4" d="M68,35.09c-3.32-9.59-9.88-16.9-13-20a61.17,61.17,0,0,0-9.84-8c-1.08.28-2.18.61-3.33,1A50.51,50.51,0,0,0,35,11,55.82,55.82,0,0,1,48.81,21.24,54.27,54.27,0,0,1,61.95,41.83c3.68,10.65,2.22,18.28-1.06,22.4l3.86-3.86c6.05-6,6.59-15.64,3.26-25.27"></path><path class="cls-2" d="M59,35A55.78,55.78,0,0,1,48.81,48.81,54.25,54.25,0,0,1,28.22,61.95C17.57,65.63,9.94,64.17,5.83,60.89l3.86,3.87c6,6,15.64,6.59,25.27,3.26s16.9-9.88,20-13a61.24,61.24,0,0,0,8-9.84c-.28-1.07-.61-2.18-1-3.33A50.86,50.86,0,0,0,59,35"></path><path class="cls-1" d="M62.29,46.15l.66-1c-.28-1.07-.61-2.18-1-3.33A50.79,50.79,0,0,0,59,35q-.68,1.3-1.38,2.49a35.35,35.35,0,0,1,4.65,8.64"></path><path class="cls-2" d="M35,11c.86.45,1.69.91,2.49,1.38a35.25,35.25,0,0,1,8.64-4.65l-1-.67c-1.07.28-2.18.61-3.33,1A50.6,50.6,0,0,0,35,11"></path><path class="cls-4" d="M8.1,28.22A50.76,50.76,0,0,0,11,35q.67-1.3,1.38-2.49a35.32,35.32,0,0,1-4.65-8.64l-.66,1c.28,1.07.61,2.18,1,3.33"></path><path class="cls-5" d="M23.89,62.29l1,.66c1.07-.28,2.18-.61,3.33-1A50.79,50.79,0,0,0,35,59q-1.3-.68-2.49-1.38a35.35,35.35,0,0,1-8.64,4.65"></path><path class="cls-6" d="M202.64,34.76c-1.13,10.88-2.94,15.29-8.17,16.69v7.17a.61.61,0,0,0,.62.61c9.16-.19,14.66-4.75,16.49-23,.76-7.52.88-16.14.88-16.14h14.48V58.39h9.72V11.65H203.5s.16,13.25-.86,23.1"></path><polygon class="cls-6" points="245.01 11.65 245.01 20.11 258.8 20.11 258.8 58.39 268.52 58.39 268.52 20.11 282.11 20.11 282.11 11.65 245.01 11.65"></polygon><path class="cls-6" d="M137.37,11.65h-9.72V49.93H105V11.65H95.33V56.58a1.81,1.81,0,0,0,1.81,1.81h35.52v5.48a1.81,1.81,0,0,0,1.81,1.81h7.38V49.93h-4.49Z"></path><path class="cls-6" d="M166.85,10.87a24.35,24.35,0,0,0-17.66,7.68l4.59,4.34a2.13,2.13,0,0,0,2.78.14,16.2,16.2,0,0,1,10-3.53c7.39,0,12.78,5,14.39,11.61h-19.7v6.23a1.81,1.81,0,0,0,1.81,1.81h18C179.52,45.83,174.11,51,166.47,51A16.42,16.42,0,0,1,156,47.14a2.13,2.13,0,0,0-2.83.11l-4.53,4.29a24.52,24.52,0,0,0,18.1,8.07c13.78,0,23.93-10.91,23.93-24.37s-9.84-24.37-23.81-24.37"></path></g></g></svg> 